name Run_500 03_newCOP3_v24.mot
datacolumns 19
datarows 95
range 2.8025 2.8495
DataType=double
version=3
OpenSimVersion=4.3-2021-08-27-4bc7ad9
endheader
time	R_ground_force_vx	R_ground_force_vy	R_ground_force_vz	R_ground_force_px	R_ground_force_py	R_ground_force_pz	L_ground_force_vx	L_ground_force_vy	L_ground_force_vz	L_ground_force_px	L_ground_force_py	L_ground_force_pz	R_ground_torque_x	R_ground_torque_y	R_ground_torque_z	L_ground_torque_x	L_ground_torque_y	L_ground_torque_z
2.8025	-16.878782	48.323879	-11.958119	1.088442	0	-0.266213	0	0	0	0	0	0	-0	1.315912	-0	0	0	0
2.803	-18.096678	51.954121	-12.522233	1.088628	0	-0.266689	0	0	0	0	0	0	-0	1.35041	-0	0	0	0
2.8035	-19.381836	55.820953	-13.100242	1.088871	0	-0.267106	0	0	0	0	0	0	-0	1.384609	-0	0	0	0
2.804	-20.735886	59.934837	-13.691977	1.089155	0	-0.267472	0	0	0	0	0	0	-0	1.418456	-0	0	0	0
2.8045	-22.160324	64.306297	-14.29724	1.089469	0	-0.267794	0	0	0	0	0	0	-0	1.451898	-0	0	0	0
2.805	-23.656496	68.94592299999999	-14.915797	1.089801	0	-0.268079	0	0	0	0	0	0	-0	1.484881	-0	0	0	0
2.8055	-25.225586	73.86428100000001	-15.547382	1.090143	0	-0.268332	0	0	0	0	0	0	-0	1.517348	-0	0	0	0
2.806	-26.868595	79.071907	-16.191689	1.090487	0	-0.268559	0	0	0	0	0	0	-0	1.549245	-0	0	0	0
2.8065	-28.586327	84.579247	-16.848377	1.090826	0	-0.268763	0	0	0	0	0	0	-0	1.580514	-0	0	0	0
2.807	-30.379362	90.396614	-17.517063	1.091156	0	-0.268948	0	0	0	0	0	0	-0	1.611098	-0	0	0	0
2.8075	-32.248047	96.534142	-18.197325	1.09147	0	-0.269118	0	0	0	0	0	0	-0	1.640939	-0	0	0	0
2.808	-34.192482	103.001701	-18.888695	1.091767	0	-0.269275	0	0	0	0	0	0	-0	1.669979	-0	0	0	0
2.8085	-36.212479	109.808884	-19.590668	1.092043	0	-0.269422	0	0	0	0	0	0	-0	1.698159	-0	0	0	0
2.809	-38.307568	116.964928	-20.302689	1.092295	0	-0.269561	0	0	0	0	0	0	-0	1.725422	-0	0	0	0
2.8095	-40.476974	124.478638	-21.024157	1.092522	0	-0.269694	0	0	0	0	0	0	-0	1.751707	-0	0	0	0
2.81	-42.719593	132.358368	-21.754425	1.092721	0	-0.269822	0	0	0	0	0	0	-0	1.776956	-0	0	0	0
2.8105	-45.033978	140.611893	-22.492805	1.092892	0	-0.269948	0	0	0	0	0	0	-0	1.801111	-0	0	0	0
2.811	-47.418327	149.246445	-23.238552	1.093034	0	-0.270071	0	0	0	0	0	0	-0	1.824113	-0	0	0	0
2.8115	-49.870468	158.268524	-23.990881	1.093146	0	-0.270193	0	0	0	0	0	0	-0	1.845904	-0	0	0	0
2.812	-52.387852	167.68396	-24.748951	1.093227	0	-0.270315	0	0	0	0	0	0	-0	1.866427	-0	0	0	0
2.8125	-54.967537	177.497742	-25.511881	1.093277	0	-0.270437	0	0	0	0	0	0	-0	1.885625	-0	0	0	0
2.813	-57.606182	187.714066	-26.278736	1.093296	0	-0.27056	0	0	0	0	0	0	-0	1.90344	-0	0	0	0
2.8135	-60.300049	198.336166	-27.04854	1.093283	0	-0.270685	0	0	0	0	0	0	-0	1.919819	-0	0	0	0
2.814	-63.044987	209.366348	-27.820269	1.093238	0	-0.270811	0	0	0	0	0	0	-0	1.934705	-0	0	0	0
2.8145	-65.836449	220.805893	-28.59285	1.093162	0	-0.270939	0	0	0	0	0	0	-0	1.948046	-0	0	0	0
2.815	-68.66951	232.655014	-29.365173	1.093054	0	-0.271069	0	0	0	0	0	0	-0	1.95979	-0	0	0	0
2.8155	-71.538826	244.912842	-30.136084	1.092914	0	-0.271201	0	0	0	0	0	0	-0	1.969884	-0	0	0	0
2.816	-74.43871300000001	257.577301	-30.90439	1.092742	0	-0.271336	0	0	0	0	0	0	-0	1.978279	-0	0	0	0
2.8165	-77.36312100000001	270.645233	-31.668861	1.092538	0	-0.271473	0	0	0	0	0	0	-0	1.984927	-0	0	0	0
2.817	-80.305672	284.112152	-32.42823	1.092303	0	-0.271612	0	0	0	0	0	0	-0	1.989781	-0	0	0	0
2.8175	-83.259705	297.972443	-33.181206	1.092036	0	-0.271754	0	0	0	0	0	0	-0	1.992797	-0	0	0	0
2.818	-86.218277	312.219208	-33.92646	1.091737	0	-0.271897	0	0	0	0	0	0	-0	1.99393	-0	0	0	0
2.8185	-89.17422500000001	326.844269	-34.662643	1.091407	0	-0.272043	0	0	0	0	0	0	-0	1.99314	-0	0	0	0
2.819	-92.120209	341.838196	-35.388393	1.091045	0	-0.272191	0	0	0	0	0	0	-0	1.990387	-0	0	0	0
2.8195	-95.048759	357.190338	-36.102318	1.090653	0	-0.272341	0	0	0	0	0	0	-0	1.985635	-0	0	0	0
2.82	-97.952332	372.888794	-36.803024	1.090229	0	-0.272492	0	0	0	0	0	0	-0	1.978849	-0	0	0	0
2.8205	-100.823341	388.92041	-37.489101	1.089774	0	-0.272645	0	0	0	0	0	0	-0	1.969995	-0	0	0	0
2.821	-103.654274	405.270844	-38.159145	1.089288	0	-0.272799	0	0	0	0	0	0	-0	1.959045	-0	0	0	0
2.8215	-106.437714	421.924591	-38.811752	1.088771	0	-0.272955	0	0	0	0	0	0	-0	1.945971	-0	0	0	0
2.822	-109.16642	438.865021	-39.445522	1.088223	0	-0.273112	0	0	0	0	0	0	-0	1.930747	-0	0	0	0
2.8225	-111.83342	456.074402	-40.059071	1.087646	0	-0.273269	0	0	0	0	0	0	-0	1.913352	-0	0	0	0
2.823	-114.432037	473.534027	-40.651035	1.087038	0	-0.273427	0	0	0	0	0	0	-0	1.893766	-0	0	0	0
2.8235	-116.956017	491.224121	-41.220074	1.0864	0	-0.273586	0	0	0	0	0	0	-0	1.871972	-0	0	0	0
2.824	-119.399559	509.124084	-41.764881	1.085733	0	-0.273745	0	0	0	0	0	0	-0	1.847958	-0	0	0	0
2.8245	-121.757423	527.212463	-42.284176	1.085036	0	-0.273904	0	0	0	0	0	0	-0	1.821712	-0	0	0	0
2.825	-124.024963	545.466919	-42.776737	1.084311	0	-0.274063	0	0	0	0	0	0	-0	1.793227	-0	0	0	0
2.8255	-126.198227	563.864563	-43.241379	1.083556	0	-0.274221	0	0	0	0	0	0	-0	1.762499	-0	0	0	0
2.826	-128.273987	582.381836	-43.676971	1.082774	0	-0.274379	0	0	0	0	0	0	-0	1.729525	-0	0	0	0
2.8265	-130.249832	600.994629	-44.082451	1.081964	0	-0.274537	0	0	0	0	0	0	-0	1.69431	-0	0	0	0
2.827	-132.124191	619.678467	-44.456814	1.081127	0	-0.274693	0	0	0	0	0	0	-0	1.656856	-0	0	0	0
2.8275	-133.896362	638.408325	-44.799133	1.080263	0	-0.274849	0	0	0	0	0	0	-0	1.617174	-0	0	0	0
2.828	-135.566589	657.15918	-45.108555	1.079374	0	-0.275004	0	0	0	0	0	0	-0	1.575275	-0	0	0	0
2.8285	-137.136063	675.905579	-45.384312	1.078458	0	-0.275157	0	0	0	0	0	0	-0	1.531174	-0	0	0	0
2.829	-138.606888	694.622253	-45.625713	1.077518	0	-0.275308	0	0	0	0	0	0	-0	1.484889	-0	0	0	0
2.8295	-139.982193	713.283813	-45.832172	1.076553	0	-0.275459	0	0	0	0	0	0	-0	1.436444	-0	0	0	0
2.83	-141.266006	731.864929	-46.003197	1.075565	0	-0.275607	0	0	0	0	0	0	-0	1.385862	-0	0	0	0
2.8305	-142.463272	750.340698	-46.138386	1.074554	0	-0.275753	0	0	0	0	0	0	-0	1.333174	-0	0	0	0
2.831	-143.579895	768.686279	-46.23745	1.073521	0	-0.275898	0	0	0	0	0	0	-0	1.27841	-0	0	0	0
2.8315	-144.622528	786.877502	-46.300201	1.072467	0	-0.27604	0	0	0	0	0	0	-0	1.221606	-0	0	0	0
2.832	-145.598694	804.890564	-46.326569	1.071392	0	-0.27618	0	0	0	0	0	0	-0	1.162802	-0	0	0	0
2.8325	-146.516586	822.702271	-46.316582	1.070297	0	-0.276318	0	0	0	0	0	0	-0	1.102039	-0	0	0	0
2.833	-147.38504	840.290222	-46.270393	1.069183	0	-0.276453	0	0	0	0	0	0	-0	1.039362	-0	0	0	0
2.8335	-148.21344	857.63269	-46.188267	1.068051	0	-0.276586	0	0	0	0	0	0	-0	0.97482	-0	0	0	0
2.834	-149.011612	874.708984	-46.070576	1.066901	0	-0.276716	0	0	0	0	0	0	-0	0.908465	-0	0	0	0
2.8345	-149.789719	891.499268	-45.917812	1.065735	0	-0.276844	0	0	0	0	0	0	-0	0.840351	-0	0	0	0
2.835	-150.558136	907.984924	-45.730587	1.064552	0	-0.276969	0	0	0	0	0	0	-0	0.770536	-0	0	0	0
2.8355	-151.327377	924.148193	-45.509617	1.063354	0	-0.277091	0	0	0	0	0	0	-0	0.699082	-0	0	0	0
2.836	-152.10788	939.972839	-45.255737	1.062142	0	-0.277211	0	0	0	0	0	0	-0	0.626051	-0	0	0	0
2.8365	-152.910004	955.443665	-44.969879	1.060916	0	-0.277328	0	0	0	0	0	0	-0	0.551511	-0	0	0	0
2.837	-153.74379	970.546936	-44.653099	1.059676	0	-0.277442	0	0	0	0	0	0	-0	0.47553	-0	0	0	0
2.8375	-154.618927	985.270325	-44.306541	1.058424	0	-0.277554	0	0	0	0	0	0	-0	0.398182	-0	0	0	0
2.838	-155.544601	999.602844	-43.931454	1.057159	0	-0.277662	0	0	0	0	0	0	-0	0.319539	-0	0	0	0
2.8385	-156.529373	1013.535156	-43.529179	1.055883	0	-0.277768	0	0	0	0	0	0	-0	0.239679	-0	0	0	0
2.839	-157.581116	1027.059204	-43.101147	1.054595	0	-0.277872	0	0	0	0	0	0	-0	0.158682	-0	0	0	0
2.8395	-158.706863	1040.168701	-42.648869	1.053297	0	-0.277973	0	0	0	0	0	0	-0	0.076629	-0	0	0	0
2.84	-159.912781	1052.858887	-42.173946	1.051987	0	-0.278071	0	0	0	0	0	0	0	-0.006397	0	0	0	0
2.8405	-161.204056	1065.126343	-41.678032	1.050668	0	-0.278167	0	0	0	0	0	0	0	-0.09031	0	0	0	0
2.841	-162.584885	1076.969482	-41.162853	1.049338	0	-0.27826	0	0	0	0	0	0	0	-0.175022	0	0	0	0
2.8415	-164.05838	1088.388062	-40.630196	1.047998	0	-0.278351	0	0	0	0	0	0	0	-0.260445	0	0	0	0
2.842	-165.626572	1099.383423	-40.08189	1.046648	0	-0.27844	0	0	0	0	0	0	0	-0.346488	0	0	0	0
2.8425	-167.290344	1109.958618	-39.51981	1.045287	0	-0.278527	0	0	0	0	0	0	0	-0.433057	0	0	0	0
2.843	-169.04953	1120.117798	-38.945854	1.043917	0	-0.278611	0	0	0	0	0	0	0	-0.520061	0	0	0	0
2.8435	-170.902802	1129.866821	-38.361961	1.042536	0	-0.278694	0	0	0	0	0	0	0	-0.6074040000000001	0	0	0	0
2.844	-172.847794	1139.212769	-37.770069	1.041144	0	-0.278775	0	0	0	0	0	0	0	-0.694991	0	0	0	0
2.8445	-174.881119	1148.16394	-37.172131	1.039742	0	-0.278855	0	0	0	0	0	0	0	-0.782724	0	0	0	0
2.845	-176.998383	1156.72998	-36.570099	1.038328	0	-0.278932	0	0	0	0	0	0	0	-0.870507	0	0	0	0
2.8455	-179.194275	1164.921875	-35.965916	1.036902	0	-0.279009	0	0	0	0	0	0	0	-0.958241	0	0	0	0
2.846	-181.462662	1172.751343	-35.3615	1.035464	0	-0.279084	0	0	0	0	0	0	0	-1.045828	0	0	0	0
2.8465	-183.796616	1180.231201	-34.758751	1.034013	0	-0.279158	0	0	0	0	0	0	0	-1.13317	0	0	0	0
2.847	-186.188553	1187.375366	-34.159523	1.03255	0	-0.279231	0	0	0	0	0	0	0	-1.220167	0	0	0	0
2.8475	-188.63031	1194.198364	-33.565639	1.031072	0	-0.279303	0	0	0	0	0	0	0	-1.306721	0	0	0	0
2.848	-191.11322	1200.715576	-32.978859	1.02958	0	-0.279375	0	0	0	0	0	0	0	-1.392733	0	0	0	0
2.8485	-193.62825	1206.942871	-32.40089	1.028074	0	-0.279446	0	0	0	0	0	0	0	-1.478105	0	0	0	0
2.849	-196.166061	1212.896851	-31.833372	1.026551	0	-0.279517	0	0	0	0	0	0	0	-1.562738	0	0	0	0
2.8495	-198.717102	1218.594238	-31.277878	1.025013	0	-0.279587	0	0	0	0	0	0	0	-1.646536	0	0	0	0
